<svg width="124" height="16" viewBox="0 0 124 16" fill="none" xmlns="http://www.w3.org/2000/svg">
<path d="M0.4 15V0.999999H3.66L9.46 10.52H7.74L13.38 0.999999H16.64L16.68 15H13.04L13 6.54H13.62L9.4 13.62H7.64L3.3 6.54H4.06V15H0.4ZM17.902 15L24.082 0.999999H27.982L34.182 15H30.062L25.222 2.94H26.782L21.942 15H17.902ZM21.282 12.28L22.302 9.36H29.142L30.162 12.28H21.282ZM35.4047 15V0.999999H41.8047C43.0847 0.999999 44.1847 1.20667 45.1047 1.62C46.038 2.03333 46.758 2.63333 47.2647 3.42C47.7714 4.19333 48.0247 5.11333 48.0247 6.18C48.0247 7.23333 47.7714 8.14667 47.2647 8.92C46.758 9.68 46.038 10.2667 45.1047 10.68C44.1847 11.08 43.0847 11.28 41.8047 11.28H37.6047L39.3647 9.62V15H35.4047ZM44.0647 15L40.5847 9.9H44.8047L48.3047 15H44.0647ZM39.3647 10.04L37.6047 8.22H41.5647C42.3914 8.22 43.0047 8.04 43.4047 7.68C43.818 7.32 44.0247 6.82 44.0247 6.18C44.0247 5.52667 43.818 5.02 43.4047 4.66C43.0047 4.3 42.3914 4.12 41.5647 4.12H37.6047L39.3647 2.3V10.04ZM50.3094 15V0.999999H53.5694L59.3694 10.52H57.6494L63.2894 0.999999H66.5494L66.5894 15H62.9494L62.9094 6.54H63.5294L59.3094 13.62H57.5494L53.2094 6.54H53.9694V15H50.3094ZM73.1314 6.42H79.6314V9.38H73.1314V6.42ZM73.4114 11.94H80.7314V15H69.4914V0.999999H80.4714V4.06H73.4114V11.94ZM83.0289 15V0.999999H86.9889V11.86H93.6689V15H83.0289ZM102.181 15.28C101.061 15.28 100.028 15.1 99.0811 14.74C98.1344 14.38 97.3078 13.8733 96.6011 13.22C95.9078 12.5533 95.3678 11.78 94.9811 10.9C94.5944 10.02 94.4011 9.05333 94.4011 8C94.4011 6.94667 94.5944 5.98 94.9811 5.1C95.3678 4.22 95.9078 3.45333 96.6011 2.8C97.3078 2.13333 98.1344 1.62 99.0811 1.26C100.028 0.899999 101.061 0.719999 102.181 0.719999C103.314 0.719999 104.348 0.899999 105.281 1.26C106.228 1.62 107.048 2.13333 107.741 2.8C108.434 3.45333 108.974 4.22 109.361 5.1C109.761 5.98 109.961 6.94667 109.961 8C109.961 9.05333 109.761 10.0267 109.361 10.92C108.974 11.8 108.434 12.5667 107.741 13.22C107.048 13.8733 106.228 14.38 105.281 14.74C104.348 15.1 103.314 15.28 102.181 15.28ZM102.181 12C102.714 12 103.208 11.9067 103.661 11.72C104.128 11.5333 104.528 11.2667 104.861 10.92C105.208 10.56 105.474 10.1333 105.661 9.64C105.861 9.14667 105.961 8.6 105.961 8C105.961 7.38667 105.861 6.84 105.661 6.36C105.474 5.86667 105.208 5.44667 104.861 5.1C104.528 4.74 104.128 4.46667 103.661 4.28C103.208 4.09333 102.714 4 102.181 4C101.648 4 101.148 4.09333 100.681 4.28C100.228 4.46667 99.8278 4.74 99.4811 5.1C99.1478 5.44667 98.8811 5.86667 98.6811 6.36C98.4944 6.84 98.4011 7.38667 98.4011 8C98.4011 8.6 98.4944 9.14667 98.6811 9.64C98.8811 10.1333 99.1478 10.56 99.4811 10.92C99.8278 11.2667 100.228 11.5333 100.681 11.72C101.148 11.9067 101.648 12 102.181 12ZM117.055 15.28C115.908 15.28 114.802 15.14 113.735 14.86C112.682 14.5667 111.822 14.1933 111.155 13.74L112.455 10.82C113.082 11.22 113.802 11.5533 114.615 11.82C115.442 12.0733 116.262 12.2 117.075 12.2C117.622 12.2 118.062 12.1533 118.395 12.06C118.728 11.9533 118.968 11.82 119.115 11.66C119.275 11.4867 119.355 11.2867 119.355 11.06C119.355 10.74 119.208 10.4867 118.915 10.3C118.622 10.1133 118.242 9.96 117.775 9.84C117.308 9.72 116.788 9.6 116.215 9.48C115.655 9.36 115.088 9.20667 114.515 9.02C113.955 8.83333 113.442 8.59333 112.975 8.3C112.508 7.99333 112.128 7.6 111.835 7.12C111.542 6.62667 111.395 6.00667 111.395 5.26C111.395 4.42 111.622 3.66 112.075 2.98C112.542 2.3 113.235 1.75333 114.155 1.34C115.075 0.926666 116.222 0.719999 117.595 0.719999C118.515 0.719999 119.415 0.826666 120.295 1.04C121.188 1.24 121.982 1.54 122.675 1.94L121.455 4.88C120.788 4.52 120.128 4.25333 119.475 4.08C118.822 3.89333 118.188 3.8 117.575 3.8C117.028 3.8 116.588 3.86 116.255 3.98C115.922 4.08667 115.682 4.23333 115.535 4.42C115.388 4.60667 115.315 4.82 115.315 5.06C115.315 5.36667 115.455 5.61333 115.735 5.8C116.028 5.97333 116.408 6.12 116.875 6.24C117.355 6.34667 117.875 6.46 118.435 6.58C119.008 6.7 119.575 6.85333 120.135 7.04C120.708 7.21333 121.228 7.45333 121.695 7.76C122.162 8.05333 122.535 8.44667 122.815 8.94C123.108 9.42 123.255 10.0267 123.255 10.76C123.255 11.5733 123.022 12.3267 122.555 13.02C122.102 13.7 121.415 14.2467 120.495 14.66C119.588 15.0733 118.442 15.28 117.055 15.28Z" fill="white"/>
</svg>
